<?xml version="1.0" standalone="no"?><!DOCTYPE svg PUBLIC "-//W3C//DTD SVG 1.1//EN" "http://www.w3.org/Graphics/SVG/1.1/DTD/svg11.dtd"><svg t="1669212286006" class="icon" viewBox="0 0 1024 1024" version="1.1" xmlns="http://www.w3.org/2000/svg" p-id="56703" width="200" height="200" xmlns:xlink="http://www.w3.org/1999/xlink"><path d="M931.119 622.841 931.119 166.072l-7.71 0c-0.926 0-94.419-0.593-223.438-52.249C575.088 61.442 518.107 6.489 517.573 5.951L512.119 0.5l-5.453 5.451c-13.974 13.989-77.494 63.811-182.298 107.816-129.207 51.613-222.786 52.306-223.712 52.306l-7.71 0.015 0.015 456.366c-0.318 4.325-6.091 107.407 146.291 229.151 149.576 123.377 251.806 166.498 271.002 171.287l2.416 0.609 2.314-0.926c26.386-10.562 123.842-54.073 269.989-170.97C933.317 729.731 931.277 626.879 931.119 622.841zM915.699 623.103c0.028 0.984 1.315 100.058-140.434 216.523C635.02 951.794 540.718 995.364 511.671 1007.268c-22.756-7.058-122.221-51.758-262.698-167.627C103.507 723.409 108.279 624.534 108.367 623.016L108.367 181.278c25.272-1.157 109.506-8.362 221.847-53.249C436.16 83.547 494.847 36.78 512.119 21.779c17.287 15.016 76.061 61.87 182.009 106.308 111.993 44.83 196.284 52.035 221.571 53.192L915.699 623.103z" p-id="56704" fill="#fc2307"></path><path d="M636.32 290.13 567.06 290.13c-1.194 13.05-4.745 24.866-10.655 35.515l-90.576 0c-3.552-10.649-6.518-22.465-8.874-35.515l-69.27 0c1.172 14.206 4.137 26.053 8.882 35.515l-90.57 0 0 42.63 163.383 0c-1.192 11.846-3.551 23.086-7.103 33.748L345.062 402.023l0 285.929 271.723 0c42.63 1.157 63.938-20.151 63.938-63.938l0-221.99L531.538 402.024c3.552-10.662 6.495-21.902 8.882-33.748l177.596 0 0-42.63-90.57 0C630.998 316.183 633.934 304.336 636.32 290.13zM615.013 624.014c1.164 18.949-7.103 27.832-24.866 26.631L410.772 650.645l0-44.396 204.241 0L615.013 624.014zM615.013 567.179 410.772 567.179l0-42.617 204.241 0L615.013 567.179zM615.013 444.641l0 40.849L410.772 485.49l0-40.849L615.013 444.641z" p-id="56705" fill="#fc2307"></path></svg>